<svg width="412" height="315" viewBox="0 0 412 315" fill="none" xmlns="http://www.w3.org/2000/svg">
<g filter="url(#filter0_d_5_243)">
<path d="M70 30H342V203C342 204.105 341.105 205 340 205H72C70.8954 205 70 204.105 70 203V30Z" fill="white"/>
</g>
<path d="M105.824 102.872C105.664 102.2 105.384 101.696 104.984 101.36C104.6 101.024 104.04 100.856 103.304 100.856C102.2 100.856 101.384 101.304 100.856 102.2C100.344 103.08 100.08 104.52 100.064 106.52C100.448 105.88 101.008 105.384 101.744 105.032C102.48 104.664 103.28 104.48 104.144 104.48C105.184 104.48 106.104 104.704 106.904 105.152C107.704 105.6 108.328 106.256 108.776 107.12C109.224 107.968 109.448 108.992 109.448 110.192C109.448 111.328 109.216 112.344 108.752 113.24C108.304 114.12 107.64 114.808 106.76 115.304C105.88 115.8 104.832 116.048 103.616 116.048C101.952 116.048 100.64 115.68 99.6805 114.944C98.7365 114.208 98.0725 113.184 97.6885 111.872C97.3205 110.544 97.1365 108.912 97.1365 106.976C97.1365 104.048 97.6405 101.84 98.6485 100.352C99.6565 98.848 101.248 98.096 103.424 98.096C105.104 98.096 106.408 98.552 107.336 99.464C108.264 100.376 108.8 101.512 108.944 102.872H105.824ZM103.376 107.24C102.528 107.24 101.816 107.488 101.24 107.984C100.664 108.48 100.376 109.2 100.376 110.144C100.376 111.088 100.64 111.832 101.168 112.376C101.712 112.92 102.472 113.192 103.448 113.192C104.312 113.192 104.992 112.928 105.488 112.4C106 111.872 106.256 111.16 106.256 110.264C106.256 109.336 106.008 108.6 105.512 108.056C105.032 107.512 104.32 107.24 103.376 107.24ZM113.976 116.168C113.368 116.168 112.864 115.984 112.464 115.616C112.08 115.232 111.888 114.76 111.888 114.2C111.888 113.64 112.08 113.176 112.464 112.808C112.864 112.424 113.368 112.232 113.976 112.232C114.568 112.232 115.056 112.424 115.44 112.808C115.824 113.176 116.016 113.64 116.016 114.2C116.016 114.76 115.824 115.232 115.44 115.616C115.056 115.984 114.568 116.168 113.976 116.168ZM129.474 101.048L123.09 116H119.682L126.114 101.432H117.906V98.552H129.474V101.048ZM155.854 99.248V116H152.494V105.104L148.006 116H145.462L140.95 105.104V116H137.59V99.248H141.406L146.734 111.704L152.062 99.248H155.854Z" fill="#1F1F26"/>
<path d="M96.2814 137V129.727H100.791V130.672H97.3787V132.888H100.468V133.829H97.3787V137H96.2814ZM108.458 133.364C108.458 134.138 108.316 134.804 108.032 135.363C107.748 135.922 107.359 136.351 106.864 136.652C106.371 136.95 105.811 137.099 105.184 137.099C104.554 137.099 103.992 136.95 103.497 136.652C103.005 136.351 102.617 135.922 102.333 135.363C102.048 134.804 101.906 134.138 101.906 133.364C101.906 132.587 102.048 131.921 102.333 131.364C102.617 130.806 103.005 130.377 103.497 130.079C103.992 129.778 104.554 129.628 105.184 129.628C105.811 129.628 106.371 129.778 106.864 130.079C107.359 130.377 107.748 130.806 108.032 131.364C108.316 131.921 108.458 132.587 108.458 133.364ZM107.372 133.364C107.372 132.772 107.276 132.273 107.084 131.869C106.895 131.461 106.634 131.154 106.303 130.945C105.974 130.735 105.601 130.629 105.184 130.629C104.767 130.629 104.393 130.735 104.062 130.945C103.733 131.154 103.472 131.461 103.281 131.869C103.091 132.273 102.997 132.772 102.997 133.364C102.997 133.953 103.091 134.451 103.281 134.859C103.472 135.266 103.733 135.575 104.062 135.786C104.393 135.994 104.767 136.098 105.184 136.098C105.601 136.098 105.974 135.994 106.303 135.786C106.634 135.575 106.895 135.266 107.084 134.859C107.276 134.451 107.372 133.953 107.372 133.364ZM109.826 137V129.727H110.924V136.055H114.219V137H109.826ZM115.471 137V129.727H116.568V136.055H119.864V137H115.471ZM127.15 133.364C127.15 134.138 127.008 134.804 126.724 135.363C126.439 135.922 126.05 136.351 125.555 136.652C125.063 136.95 124.503 137.099 123.876 137.099C123.246 137.099 122.684 136.95 122.189 136.652C121.696 136.351 121.308 135.922 121.024 135.363C120.74 134.804 120.598 134.138 120.598 133.364C120.598 132.587 120.74 131.921 121.024 131.364C121.308 130.806 121.696 130.377 122.189 130.079C122.684 129.778 123.246 129.628 123.876 129.628C124.503 129.628 125.063 129.778 125.555 130.079C126.05 130.377 126.439 130.806 126.724 131.364C127.008 131.921 127.15 132.587 127.15 133.364ZM126.063 133.364C126.063 132.772 125.967 132.273 125.775 131.869C125.586 131.461 125.326 131.154 124.994 130.945C124.665 130.735 124.292 130.629 123.876 130.629C123.459 130.629 123.085 130.735 122.753 130.945C122.424 131.154 122.164 131.461 121.972 131.869C121.783 132.273 121.688 132.772 121.688 133.364C121.688 133.953 121.783 134.451 121.972 134.859C122.164 135.266 122.424 135.575 122.753 135.786C123.085 135.994 123.459 136.098 123.876 136.098C124.292 136.098 124.665 135.994 124.994 135.786C125.326 135.575 125.586 135.266 125.775 134.859C125.967 134.451 126.063 133.953 126.063 133.364ZM129.942 137L127.925 129.727H129.079L130.496 135.359H130.563L132.037 129.727H133.18L134.654 135.363H134.722L136.135 129.727H137.293L135.272 137H134.168L132.637 131.553H132.58L131.05 137H129.942ZM138.293 137V129.727H142.853V130.672H139.39V132.888H142.615V133.829H139.39V136.055H142.895V137H138.293ZM144.319 137V129.727H146.911C147.474 129.727 147.942 129.824 148.314 130.018C148.685 130.213 148.963 130.481 149.148 130.825C149.335 131.165 149.429 131.56 149.429 132.007C149.429 132.495 149.317 132.917 149.095 133.275C148.875 133.63 148.541 133.89 148.093 134.056L149.706 137H148.456L146.978 134.248C146.955 134.248 146.931 134.248 146.907 134.248H145.416V137H144.319ZM145.416 133.303H146.808C147.343 133.303 147.729 133.19 147.966 132.962C148.205 132.735 148.324 132.417 148.324 132.007C148.324 131.595 148.205 131.27 147.966 131.031C147.726 130.789 147.336 130.668 146.794 130.668H145.416V133.303ZM153.41 137V129.727H156.003C156.566 129.727 157.034 129.824 157.405 130.018C157.777 130.213 158.055 130.481 158.24 130.825C158.427 131.165 158.52 131.56 158.52 132.007C158.52 132.495 158.409 132.917 158.187 133.275C157.966 133.63 157.633 133.89 157.185 134.056L158.797 137H157.547L156.07 134.248C156.046 134.248 156.023 134.248 155.999 134.248H154.508V137H153.41ZM154.508 133.303H155.9C156.435 133.303 156.821 133.19 157.057 132.962C157.296 132.735 157.416 132.417 157.416 132.007C157.416 131.595 157.296 131.27 157.057 131.031C156.818 130.789 156.428 130.668 155.885 130.668H154.508V133.303ZM159.856 137V129.727H164.415V130.672H160.953V132.888H164.177V133.829H160.953V136.055H164.458V137H159.856ZM166.495 137H165.331L167.948 129.727H169.216L171.833 137H170.668L170.004 135.075H167.163L166.495 137ZM167.483 134.152H169.684L168.612 131.048H168.555L167.483 134.152ZM178.582 132.092H177.474C177.384 131.621 177.162 131.26 176.81 131.009C176.459 130.756 176.052 130.629 175.588 130.629C175.171 130.629 174.797 130.735 174.466 130.945C174.134 131.156 173.873 131.465 173.681 131.872C173.492 132.277 173.397 132.774 173.397 133.364C173.397 133.955 173.493 134.455 173.685 134.862C173.876 135.269 174.137 135.577 174.466 135.786C174.797 135.994 175.17 136.098 175.585 136.098C176.044 136.098 176.45 135.974 176.803 135.725C177.155 135.477 177.379 135.12 177.474 134.656L178.582 134.66C178.504 135.138 178.328 135.561 178.056 135.928C177.784 136.295 177.436 136.582 177.012 136.79C176.588 136.996 176.11 137.099 175.577 137.099C174.948 137.099 174.387 136.95 173.894 136.652C173.402 136.351 173.013 135.922 172.729 135.363C172.448 134.804 172.307 134.138 172.307 133.364C172.307 132.587 172.449 131.921 172.733 131.364C173.017 130.806 173.405 130.377 173.898 130.079C174.39 129.778 174.95 129.628 175.577 129.628C176.091 129.628 176.559 129.725 176.98 129.919C177.404 130.113 177.755 130.395 178.035 130.764C178.317 131.131 178.499 131.574 178.582 132.092ZM179.895 137V129.727H180.992V132.888H184.618V129.727H185.719V137H184.618V133.829H180.992V137H179.895Z" fill="#ADADBA"/>
<path d="M232.309 101.408H224.533V105.512C224.869 105.096 225.349 104.76 225.973 104.504C226.597 104.232 227.261 104.096 227.965 104.096C229.245 104.096 230.293 104.376 231.109 104.936C231.925 105.496 232.517 106.216 232.885 107.096C233.253 107.96 233.437 108.888 233.437 109.88C233.437 111.72 232.909 113.2 231.853 114.32C230.813 115.44 229.325 116 227.389 116C225.565 116 224.109 115.544 223.021 114.632C221.933 113.72 221.317 112.528 221.173 111.056H224.437C224.581 111.696 224.901 112.208 225.397 112.592C225.909 112.976 226.557 113.168 227.341 113.168C228.285 113.168 228.997 112.872 229.477 112.28C229.957 111.688 230.197 110.904 230.197 109.928C230.197 108.936 229.949 108.184 229.453 107.672C228.973 107.144 228.261 106.88 227.317 106.88C226.645 106.88 226.085 107.048 225.637 107.384C225.189 107.72 224.869 108.168 224.677 108.728H221.461V98.456H232.309V101.408ZM245.067 102.872C244.907 102.2 244.627 101.696 244.227 101.36C243.843 101.024 243.283 100.856 242.547 100.856C241.443 100.856 240.627 101.304 240.099 102.2C239.587 103.08 239.323 104.52 239.307 106.52C239.691 105.88 240.251 105.384 240.987 105.032C241.723 104.664 242.523 104.48 243.387 104.48C244.427 104.48 245.347 104.704 246.147 105.152C246.947 105.6 247.571 106.256 248.019 107.12C248.467 107.968 248.691 108.992 248.691 110.192C248.691 111.328 248.459 112.344 247.995 113.24C247.547 114.12 246.883 114.808 246.003 115.304C245.123 115.8 244.075 116.048 242.859 116.048C241.195 116.048 239.883 115.68 238.923 114.944C237.979 114.208 237.315 113.184 236.931 111.872C236.563 110.544 236.379 108.912 236.379 106.976C236.379 104.048 236.883 101.84 237.891 100.352C238.899 98.848 240.491 98.096 242.667 98.096C244.347 98.096 245.651 98.552 246.579 99.464C247.507 100.376 248.043 101.512 248.187 102.872H245.067ZM242.619 107.24C241.771 107.24 241.059 107.488 240.483 107.984C239.907 108.48 239.619 109.2 239.619 110.144C239.619 111.088 239.883 111.832 240.411 112.376C240.955 112.92 241.715 113.192 242.691 113.192C243.555 113.192 244.235 112.928 244.731 112.4C245.243 111.872 245.499 111.16 245.499 110.264C245.499 109.336 245.251 108.6 244.755 108.056C244.275 107.512 243.563 107.24 242.619 107.24ZM253.218 116.168C252.61 116.168 252.106 115.984 251.706 115.616C251.322 115.232 251.13 114.76 251.13 114.2C251.13 113.64 251.322 113.176 251.706 112.808C252.106 112.424 252.61 112.232 253.218 112.232C253.81 112.232 254.298 112.424 254.682 112.808C255.066 113.176 255.258 113.64 255.258 114.2C255.258 114.76 255.066 115.232 254.682 115.616C254.298 115.984 253.81 116.168 253.218 116.168ZM258.637 112.208C260.173 110.928 261.397 109.864 262.309 109.016C263.221 108.152 263.981 107.256 264.589 106.328C265.197 105.4 265.501 104.488 265.501 103.592C265.501 102.776 265.309 102.136 264.925 101.672C264.541 101.208 263.949 100.976 263.149 100.976C262.349 100.976 261.733 101.248 261.301 101.792C260.869 102.32 260.645 103.048 260.629 103.976H257.365C257.429 102.056 257.997 100.6 259.069 99.608C260.157 98.616 261.533 98.12 263.197 98.12C265.021 98.12 266.421 98.608 267.397 99.584C268.373 100.544 268.861 101.816 268.861 103.4C268.861 104.648 268.525 105.84 267.853 106.976C267.181 108.112 266.413 109.104 265.549 109.952C264.685 110.784 263.557 111.792 262.165 112.976H269.245V115.76H257.389V113.264L258.637 112.208ZM286.921 116L280.825 108.536V116H277.465V99.248H280.825V106.76L286.921 99.248H290.977L284.065 107.552L291.169 116H286.921Z" fill="#1F1F26"/>
<path d="M220.245 137V129.727H224.805V130.672H221.343V132.888H224.567V133.829H221.343V136.055H224.848V137H220.245ZM232.141 129.727V137H231.132L227.435 131.666H227.368V137H226.271V129.727H227.286L230.987 135.068H231.054V129.727H232.141ZM238.663 132.025C238.526 131.594 238.296 131.254 237.974 131.006C237.655 130.755 237.253 130.629 236.771 130.629C236.361 130.629 235.992 130.735 235.663 130.945C235.333 131.156 235.073 131.465 234.881 131.872C234.692 132.277 234.597 132.773 234.597 133.36C234.597 133.95 234.693 134.448 234.885 134.855C235.077 135.262 235.339 135.571 235.673 135.782C236.007 135.993 236.387 136.098 236.813 136.098C237.396 136.098 237.865 135.926 238.223 135.583C238.58 135.237 238.765 134.771 238.777 134.184H236.98V133.278H239.839V134.106C239.839 134.717 239.708 135.247 239.448 135.697C239.19 136.144 238.834 136.49 238.379 136.734C237.925 136.978 237.403 137.099 236.813 137.099C236.157 137.099 235.581 136.949 235.084 136.648C234.587 136.345 234.199 135.915 233.922 135.356C233.646 134.797 233.507 134.134 233.507 133.367C233.507 132.593 233.648 131.927 233.93 131.368C234.211 130.809 234.597 130.379 235.087 130.079C235.577 129.778 236.136 129.628 236.763 129.628C237.287 129.628 237.761 129.73 238.187 129.933C238.614 130.134 238.966 130.415 239.246 130.775C239.527 131.135 239.708 131.551 239.789 132.025H238.663ZM241.621 137H240.457L243.074 129.727H244.342L246.959 137H245.794L245.13 135.075H242.289L241.621 137ZM242.609 134.152H244.81L243.738 131.048H243.681L242.609 134.152ZM252.589 132.025C252.452 131.594 252.222 131.254 251.9 131.006C251.581 130.755 251.179 130.629 250.696 130.629C250.287 130.629 249.917 130.735 249.588 130.945C249.259 131.156 248.999 131.465 248.807 131.872C248.618 132.277 248.523 132.773 248.523 133.36C248.523 133.95 248.619 134.448 248.811 134.855C249.002 135.262 249.265 135.571 249.599 135.782C249.933 135.993 250.313 136.098 250.739 136.098C251.321 136.098 251.791 135.926 252.149 135.583C252.506 135.237 252.691 134.771 252.703 134.184H250.906V133.278H253.764V134.106C253.764 134.717 253.634 135.247 253.374 135.697C253.116 136.144 252.759 136.49 252.305 136.734C251.85 136.978 251.328 137.099 250.739 137.099C250.083 137.099 249.507 136.949 249.009 136.648C248.512 136.345 248.125 135.915 247.848 135.356C247.571 134.797 247.433 134.134 247.433 133.367C247.433 132.593 247.574 131.927 247.855 131.368C248.137 130.809 248.523 130.379 249.013 130.079C249.503 129.778 250.062 129.628 250.689 129.628C251.212 129.628 251.687 129.73 252.113 129.933C252.539 130.134 252.892 130.415 253.171 130.775C253.453 131.135 253.634 131.551 253.715 132.025H252.589ZM255.157 137V129.727H259.717V130.672H256.255V132.888H259.479V133.829H256.255V136.055H259.76V137H255.157ZM261.183 129.727H262.514L264.83 135.381H264.915L267.23 129.727H268.562V137H267.518V131.737H267.451L265.306 136.989H264.439L262.294 131.734H262.227V137H261.183V129.727ZM270.343 137V129.727H274.903V130.672H271.44V132.888H274.665V133.829H271.44V136.055H274.945V137H270.343ZM282.238 129.727V137H281.23L277.533 131.666H277.466V137H276.368V129.727H277.384L281.084 135.068H281.152V129.727H282.238ZM283.48 130.672V129.727H289.109V130.672H286.84V137H285.746V130.672H283.48Z" fill="#ADADBA"/>
<path d="M102.012 70L99.5484 65.648H98.4924V70H96.2524V58.832H100.444C101.308 58.832 102.044 58.9867 102.652 59.296C103.26 59.5947 103.714 60.0053 104.012 60.528C104.322 61.04 104.476 61.616 104.476 62.256C104.476 62.992 104.263 63.6587 103.836 64.256C103.41 64.8427 102.775 65.248 101.932 65.472L104.604 70H102.012ZM98.4924 63.968H100.364C100.972 63.968 101.426 63.824 101.724 63.536C102.023 63.2373 102.172 62.8267 102.172 62.304C102.172 61.792 102.023 61.3973 101.724 61.12C101.426 60.832 100.972 60.688 100.364 60.688H98.4924V63.968ZM114.742 65.376C114.742 65.696 114.721 65.984 114.678 66.24H108.198C108.252 66.88 108.476 67.3813 108.87 67.744C109.265 68.1067 109.75 68.288 110.326 68.288C111.158 68.288 111.75 67.9307 112.102 67.216H114.518C114.262 68.0693 113.772 68.7733 113.046 69.328C112.321 69.872 111.43 70.144 110.374 70.144C109.521 70.144 108.753 69.9573 108.07 69.584C107.398 69.2 106.87 68.6613 106.486 67.968C106.113 67.2747 105.926 66.4747 105.926 65.568C105.926 64.6507 106.113 63.8453 106.486 63.152C106.86 62.4587 107.382 61.9253 108.054 61.552C108.726 61.1787 109.5 60.992 110.374 60.992C111.217 60.992 111.969 61.1733 112.63 61.536C113.302 61.8987 113.82 62.416 114.182 63.088C114.556 63.7493 114.742 64.512 114.742 65.376ZM112.422 64.736C112.412 64.16 112.204 63.7013 111.798 63.36C111.393 63.008 110.897 62.832 110.31 62.832C109.756 62.832 109.286 63.0027 108.902 63.344C108.529 63.6747 108.3 64.1387 108.214 64.736H112.422ZM118.617 62.432C118.905 62.0053 119.3 61.6587 119.801 61.392C120.313 61.1253 120.895 60.992 121.545 60.992C122.303 60.992 122.985 61.1787 123.593 61.552C124.212 61.9253 124.697 62.4587 125.049 63.152C125.412 63.8347 125.593 64.6293 125.593 65.536C125.593 66.4427 125.412 67.248 125.049 67.952C124.697 68.6453 124.212 69.184 123.593 69.568C122.985 69.952 122.303 70.144 121.545 70.144C120.884 70.144 120.303 70.016 119.801 69.76C119.311 69.4933 118.916 69.152 118.617 68.736V70H116.377V58.16H118.617V62.432ZM123.305 65.536C123.305 65.0027 123.193 64.544 122.969 64.16C122.756 63.7653 122.468 63.4667 122.105 63.264C121.753 63.0613 121.369 62.96 120.953 62.96C120.548 62.96 120.164 63.0667 119.801 63.28C119.449 63.4827 119.161 63.7813 118.937 64.176C118.724 64.5707 118.617 65.0347 118.617 65.568C118.617 66.1013 118.724 66.5653 118.937 66.96C119.161 67.3547 119.449 67.6587 119.801 67.872C120.164 68.0747 120.548 68.176 120.953 68.176C121.369 68.176 121.753 68.0693 122.105 67.856C122.468 67.6427 122.756 67.3387 122.969 66.944C123.193 66.5493 123.305 66.08 123.305 65.536ZM135.461 65.376C135.461 65.696 135.44 65.984 135.397 66.24H128.917C128.971 66.88 129.195 67.3813 129.589 67.744C129.984 68.1067 130.469 68.288 131.045 68.288C131.877 68.288 132.469 67.9307 132.821 67.216H135.237C134.981 68.0693 134.491 68.7733 133.765 69.328C133.04 69.872 132.149 70.144 131.093 70.144C130.24 70.144 129.472 69.9573 128.789 69.584C128.117 69.2 127.589 68.6613 127.205 67.968C126.832 67.2747 126.645 66.4747 126.645 65.568C126.645 64.6507 126.832 63.8453 127.205 63.152C127.579 62.4587 128.101 61.9253 128.773 61.552C129.445 61.1787 130.219 60.992 131.093 60.992C131.936 60.992 132.688 61.1733 133.349 61.536C134.021 61.8987 134.539 62.416 134.901 63.088C135.275 63.7493 135.461 64.512 135.461 65.376ZM133.141 64.736C133.131 64.16 132.923 63.7013 132.517 63.36C132.112 63.008 131.616 62.832 131.029 62.832C130.475 62.832 130.005 63.0027 129.621 63.344C129.248 63.6747 129.019 64.1387 128.933 64.736H133.141ZM139.336 58.16V70H137.096V58.16H139.336ZM144.818 64.4C144.818 63.3013 145.063 62.32 145.554 61.456C146.055 60.5813 146.732 59.904 147.586 59.424C148.45 58.9333 149.415 58.688 150.482 58.688C151.73 58.688 152.823 59.008 153.762 59.648C154.7 60.288 155.356 61.1733 155.73 62.304H153.154C152.898 61.7707 152.535 61.3707 152.066 61.104C151.607 60.8373 151.074 60.704 150.466 60.704C149.815 60.704 149.234 60.8587 148.722 61.168C148.22 61.4667 147.826 61.8933 147.538 62.448C147.26 63.0027 147.122 63.6533 147.122 64.4C147.122 65.136 147.26 65.7867 147.538 66.352C147.826 66.9067 148.22 67.3387 148.722 67.648C149.234 67.9467 149.815 68.096 150.466 68.096C151.074 68.096 151.607 67.9627 152.066 67.696C152.535 67.4187 152.898 67.0133 153.154 66.48H155.73C155.356 67.6213 154.7 68.512 153.762 69.152C152.834 69.7813 151.74 70.096 150.482 70.096C149.415 70.096 148.45 69.856 147.586 69.376C146.732 68.8853 146.055 68.208 145.554 67.344C145.063 66.48 144.818 65.4987 144.818 64.4ZM159.883 58.16V70H157.643V58.16H159.883ZM166.032 70.144C165.179 70.144 164.411 69.9573 163.728 69.584C163.046 69.2 162.507 68.6613 162.112 67.968C161.728 67.2747 161.536 66.4747 161.536 65.568C161.536 64.6613 161.734 63.8613 162.128 63.168C162.534 62.4747 163.083 61.9413 163.776 61.568C164.47 61.184 165.243 60.992 166.096 60.992C166.95 60.992 167.723 61.184 168.416 61.568C169.11 61.9413 169.654 62.4747 170.048 63.168C170.454 63.8613 170.656 64.6613 170.656 65.568C170.656 66.4747 170.448 67.2747 170.032 67.968C169.627 68.6613 169.072 69.2 168.368 69.584C167.675 69.9573 166.896 70.144 166.032 70.144ZM166.032 68.192C166.438 68.192 166.816 68.096 167.168 67.904C167.531 67.7013 167.819 67.4027 168.032 67.008C168.246 66.6133 168.352 66.1333 168.352 65.568C168.352 64.7253 168.128 64.08 167.68 63.632C167.243 63.1733 166.704 62.944 166.064 62.944C165.424 62.944 164.886 63.1733 164.448 63.632C164.022 64.08 163.808 64.7253 163.808 65.568C163.808 66.4107 164.016 67.0613 164.432 67.52C164.859 67.968 165.392 68.192 166.032 68.192ZM174.907 62.976V67.264C174.907 67.5627 174.977 67.7813 175.115 67.92C175.265 68.048 175.51 68.112 175.851 68.112H176.891V70H175.483C173.595 70 172.651 69.0827 172.651 67.248V62.976H171.595V61.136H172.651V58.944H174.907V61.136H176.891V62.976H174.907ZM183.494 61.008C184.166 61.008 184.764 61.1573 185.286 61.456C185.809 61.744 186.214 62.176 186.502 62.752C186.801 63.3173 186.95 64 186.95 64.8V70H184.71V65.104C184.71 64.4 184.534 63.8613 184.182 63.488C183.83 63.104 183.35 62.912 182.742 62.912C182.124 62.912 181.633 63.104 181.27 63.488C180.918 63.8613 180.742 64.4 180.742 65.104V70H178.502V58.16H180.742V62.24C181.03 61.856 181.414 61.5573 181.894 61.344C182.374 61.12 182.908 61.008 183.494 61.008ZM190.217 60.08C189.822 60.08 189.491 59.9573 189.225 59.712C188.969 59.456 188.841 59.1413 188.841 58.768C188.841 58.3947 188.969 58.0853 189.225 57.84C189.491 57.584 189.822 57.456 190.217 57.456C190.611 57.456 190.937 57.584 191.193 57.84C191.459 58.0853 191.593 58.3947 191.593 58.768C191.593 59.1413 191.459 59.456 191.193 59.712C190.937 59.9573 190.611 60.08 190.217 60.08ZM191.321 61.136V70H189.081V61.136H191.321ZM198.446 61.008C199.502 61.008 200.355 61.344 201.006 62.016C201.656 62.6773 201.982 63.6053 201.982 64.8V70H199.742V65.104C199.742 64.4 199.566 63.8613 199.214 63.488C198.862 63.104 198.382 62.912 197.774 62.912C197.155 62.912 196.664 63.104 196.302 63.488C195.95 63.8613 195.774 64.4 195.774 65.104V70H193.534V61.136H195.774V62.24C196.072 61.856 196.451 61.5573 196.91 61.344C197.379 61.12 197.891 61.008 198.446 61.008ZM207.584 60.992C208.245 60.992 208.826 61.1253 209.328 61.392C209.829 61.648 210.224 61.984 210.512 62.4V61.136H212.768V70.064C212.768 70.8853 212.602 71.616 212.272 72.256C211.941 72.9067 211.445 73.4187 210.784 73.792C210.122 74.176 209.322 74.368 208.384 74.368C207.125 74.368 206.09 74.0747 205.28 73.488C204.48 72.9013 204.026 72.1013 203.92 71.088H206.144C206.261 71.4933 206.512 71.8133 206.896 72.048C207.29 72.2933 207.765 72.416 208.32 72.416C208.97 72.416 209.498 72.2187 209.904 71.824C210.309 71.44 210.512 70.8533 210.512 70.064V68.688C210.224 69.104 209.824 69.4507 209.312 69.728C208.81 70.0053 208.234 70.144 207.584 70.144C206.837 70.144 206.154 69.952 205.536 69.568C204.917 69.184 204.426 68.6453 204.064 67.952C203.712 67.248 203.536 66.4427 203.536 65.536C203.536 64.64 203.712 63.8453 204.064 63.152C204.426 62.4587 204.912 61.9253 205.52 61.552C206.138 61.1787 206.826 60.992 207.584 60.992ZM210.512 65.568C210.512 65.024 210.405 64.56 210.192 64.176C209.978 63.7813 209.69 63.4827 209.328 63.28C208.965 63.0667 208.576 62.96 208.16 62.96C207.744 62.96 207.36 63.0613 207.008 63.264C206.656 63.4667 206.368 63.7653 206.144 64.16C205.93 64.544 205.824 65.0027 205.824 65.536C205.824 66.0693 205.93 66.5387 206.144 66.944C206.368 67.3387 206.656 67.6427 207.008 67.856C207.37 68.0693 207.754 68.176 208.16 68.176C208.576 68.176 208.965 68.0747 209.328 67.872C209.69 67.6587 209.978 67.36 210.192 66.976C210.405 66.5813 210.512 66.112 210.512 65.568Z" fill="#3B3B43"/>
<path d="M96.3147 174V163.091H97.9607V172.583H102.904V174H96.3147ZM108.18 174.165C107.377 174.165 106.685 173.991 106.103 173.643C105.52 173.295 105.071 172.807 104.755 172.178C104.442 171.546 104.286 170.808 104.286 169.962C104.286 169.124 104.442 168.386 104.755 167.746C105.071 167.107 105.511 166.608 106.076 166.25C106.644 165.891 107.308 165.712 108.068 165.712C108.686 165.712 109.27 165.85 109.821 166.127C110.375 166.401 110.824 166.839 111.168 167.443C111.516 168.043 111.69 168.837 111.69 169.824V170.388H105.873C105.895 171.177 106.117 171.784 106.539 172.21C106.962 172.636 107.514 172.849 108.196 172.849C108.65 172.849 109.043 172.752 109.373 172.556C109.703 172.361 109.94 172.07 110.082 171.683L111.589 171.955C111.408 172.619 111.017 173.153 110.417 173.558C109.817 173.963 109.071 174.165 108.18 174.165ZM105.879 169.195H110.13C110.126 168.57 109.938 168.054 109.565 167.645C109.192 167.233 108.697 167.027 108.079 167.027C107.649 167.027 107.273 167.129 106.949 167.331C106.63 167.53 106.376 167.794 106.188 168.125C106.003 168.451 105.9 168.808 105.879 169.195ZM115.838 174.181C115.32 174.181 114.851 174.085 114.432 173.893C114.017 173.702 113.686 173.421 113.441 173.052C113.196 172.679 113.074 172.224 113.074 171.688C113.074 171.223 113.163 170.841 113.34 170.543C113.521 170.245 113.761 170.009 114.059 169.835C114.361 169.661 114.699 169.531 115.071 169.446C115.444 169.357 115.824 169.289 116.211 169.243C116.701 169.186 117.097 169.14 117.399 169.105C117.705 169.066 117.926 169.004 118.065 168.918C118.207 168.833 118.278 168.695 118.278 168.503V168.466C118.278 168 118.147 167.64 117.884 167.384C117.625 167.129 117.238 167.001 116.723 167.001C116.186 167.001 115.764 167.118 115.455 167.352C115.15 167.587 114.938 167.849 114.821 168.141L113.324 167.8C113.591 167.054 114.034 166.52 114.656 166.196C115.281 165.873 115.963 165.712 116.701 165.712C117.028 165.712 117.374 165.751 117.74 165.829C118.106 165.903 118.45 166.044 118.773 166.25C119.1 166.452 119.365 166.74 119.567 167.113C119.773 167.485 119.876 167.97 119.876 168.567V174H118.321V172.881H118.257C118.104 173.187 117.832 173.48 117.442 173.76C117.051 174.041 116.517 174.181 115.838 174.181ZM116.185 172.903C116.629 172.903 117.007 172.816 117.319 172.642C117.632 172.468 117.87 172.24 118.033 171.96C118.2 171.676 118.283 171.372 118.283 171.049V169.994C118.209 170.069 118.045 170.135 117.793 170.191C117.541 170.248 117.275 170.296 116.994 170.335C116.714 170.374 116.487 170.406 116.312 170.431C115.851 170.491 115.455 170.614 115.125 170.799C114.798 170.98 114.635 171.283 114.635 171.71C114.635 172.104 114.78 172.402 115.071 172.604C115.363 172.803 115.734 172.903 116.185 172.903ZM121.997 174V165.818H123.537V167.118H123.622C123.771 166.678 124.034 166.331 124.41 166.079C124.79 165.824 125.22 165.696 125.699 165.696C125.802 165.696 125.921 165.699 126.056 165.706C126.191 165.713 126.298 165.722 126.376 165.733V167.256C126.312 167.239 126.198 167.219 126.035 167.198C125.875 167.173 125.712 167.161 125.545 167.161C124.98 167.161 124.513 167.335 124.144 167.683C123.775 168.027 123.59 168.467 123.59 169.004V174H121.997ZM129.347 169.142V174H127.754V165.818H129.283V167.15H129.384C129.572 166.717 129.867 166.369 130.268 166.106C130.673 165.843 131.183 165.712 131.797 165.712C132.635 165.712 133.308 165.973 133.816 166.495C134.327 167.017 134.583 167.784 134.583 168.796V174H132.99V168.988C132.99 168.395 132.836 167.931 132.527 167.597C132.218 167.26 131.794 167.091 131.254 167.091C130.7 167.091 130.244 167.271 129.885 167.629C129.526 167.984 129.347 168.489 129.347 169.142ZM140.817 163.091H142.814L146.287 171.571H146.415L149.888 163.091H151.886V174H150.32V166.106H150.218L147.001 173.984H145.701L142.484 166.1H142.383V174H140.817V163.091ZM157.875 174.165C157.108 174.165 156.439 173.989 155.867 173.638C155.296 173.286 154.852 172.794 154.536 172.162C154.22 171.527 154.062 170.788 154.062 169.946C154.062 169.098 154.22 168.355 154.536 167.72C154.852 167.084 155.296 166.591 155.867 166.239C156.439 165.887 157.108 165.712 157.875 165.712C158.646 165.712 159.315 165.887 159.884 166.239C160.455 166.591 160.899 167.084 161.215 167.72C161.531 168.355 161.689 169.098 161.689 169.946C161.689 170.788 161.531 171.527 161.215 172.162C160.899 172.794 160.455 173.286 159.884 173.638C159.315 173.989 158.646 174.165 157.875 174.165ZM157.881 172.828C158.381 172.828 158.793 172.697 159.117 172.434C159.443 172.171 159.685 171.821 159.841 171.385C160.001 170.944 160.081 170.463 160.081 169.941C160.081 169.419 160.001 168.938 159.841 168.498C159.685 168.057 159.443 167.706 159.117 167.443C158.793 167.176 158.381 167.043 157.881 167.043C157.38 167.043 156.966 167.176 156.64 167.443C156.313 167.706 156.07 168.057 155.91 168.498C155.75 168.938 155.67 169.419 155.67 169.941C155.67 170.463 155.75 170.944 155.91 171.385C156.07 171.821 156.313 172.171 156.64 172.434C156.966 172.697 157.38 172.828 157.881 172.828ZM163.467 174V165.818H165.007V167.118H165.092C165.241 166.678 165.504 166.331 165.88 166.079C166.257 165.824 166.686 165.696 167.169 165.696C167.393 165.696 167.594 165.722 167.771 165.776C167.949 165.829 168.105 165.902 168.24 165.994L167.729 167.326C167.633 167.276 167.524 167.237 167.404 167.208C167.283 167.18 167.144 167.166 166.988 167.166C166.438 167.166 165.978 167.34 165.608 167.688C165.243 168.032 165.06 168.471 165.06 169.004V174H163.467ZM172.677 174.165C171.874 174.165 171.182 173.991 170.6 173.643C170.017 173.295 169.568 172.807 169.252 172.178C168.939 171.546 168.783 170.808 168.783 169.962C168.783 169.124 168.939 168.386 169.252 167.746C169.568 167.107 170.008 166.608 170.573 166.25C171.141 165.891 171.805 165.712 172.565 165.712C173.183 165.712 173.767 165.85 174.318 166.127C174.872 166.401 175.321 166.839 175.665 167.443C176.013 168.043 176.187 168.837 176.187 169.824V170.388H170.371C170.392 171.177 170.614 171.784 171.036 172.21C171.459 172.636 172.011 172.849 172.693 172.849C173.148 172.849 173.54 172.752 173.87 172.556C174.2 172.361 174.437 172.07 174.579 171.683L176.086 171.955C175.905 172.619 175.514 173.153 174.914 173.558C174.314 173.963 173.568 174.165 172.677 174.165ZM170.376 169.195H174.627C174.623 168.57 174.435 168.054 174.062 167.645C173.689 167.233 173.194 167.027 172.576 167.027C172.146 167.027 171.77 167.129 171.447 167.331C171.127 167.53 170.873 167.794 170.685 168.125C170.5 168.451 170.397 168.808 170.376 169.195Z" fill="#B33CDB"/>
<path fill-rule="evenodd" clip-rule="evenodd" d="M197.75 168C197.75 169.79 197.039 171.507 195.773 172.773C194.507 174.039 192.79 174.75 191 174.75C189.21 174.75 187.493 174.039 186.227 172.773C184.961 171.507 184.25 169.79 184.25 168C184.25 166.21 184.961 164.493 186.227 163.227C187.493 161.961 189.21 161.25 191 161.25C192.79 161.25 194.507 161.961 195.773 163.227C197.039 164.493 197.75 166.21 197.75 168ZM199 168C199 170.122 198.157 172.157 196.657 173.657C195.157 175.157 193.122 176 191 176C188.878 176 186.843 175.157 185.343 173.657C183.843 172.157 183 170.122 183 168C183 165.878 183.843 163.843 185.343 162.343C186.843 160.843 188.878 160 191 160C193.122 160 195.157 160.843 196.657 162.343C198.157 163.843 199 165.878 199 168ZM190.47 165.53L192.19 167.25H187V168.75H192.19L190.47 170.47L191.53 171.53L194.53 168.53C194.67 168.389 194.749 168.199 194.749 168C194.749 167.801 194.67 167.611 194.53 167.47L191.53 164.47L190.47 165.53Z" fill="#B33CDB"/>
<defs>
<filter id="filter0_d_5_243" x="0" y="0" width="412" height="315" filterUnits="userSpaceOnUse" color-interpolation-filters="sRGB">
<feFlood flood-opacity="0" result="BackgroundImageFix"/>
<feColorMatrix in="SourceAlpha" type="matrix" values="0 0 0 0 0 0 0 0 0 0 0 0 0 0 0 0 0 0 127 0" result="hardAlpha"/>
<feMorphology radius="30" operator="erode" in="SourceAlpha" result="effect1_dropShadow_5_243"/>
<feOffset dy="40"/>
<feGaussianBlur stdDeviation="50"/>
<feColorMatrix type="matrix" values="0 0 0 0 0 0 0 0 0 0 0 0 0 0 0 0 0 0 0.04 0"/>
<feBlend mode="normal" in2="BackgroundImageFix" result="effect1_dropShadow_5_243"/>
<feBlend mode="normal" in="SourceGraphic" in2="effect1_dropShadow_5_243" result="shape"/>
</filter>
</defs>
</svg>
